<mxfile host="app.diagrams.net" agent="Mozilla/5.0 (Windows NT 10.0; Win64; x64) AppleWebKit/537.36 (KHTML, like Gecko) Chrome/128.0.0.0 Safari/537.36 Edg/128.0.0.0" version="24.7.10">
  <diagram name="Trang-1" id="Uq4cy-Rkxx6F5HWoSW8l">
    <mxGraphModel dx="5127" dy="3059" grid="1" gridSize="10" guides="1" tooltips="1" connect="1" arrows="1" fold="1" page="1" pageScale="1" pageWidth="827" pageHeight="1169" math="0" shadow="0">
      <root>
        <mxCell id="0" />
        <mxCell id="1" parent="0" />
        <mxCell id="W9RVa1DGL_Kj53iAcw9j-1" value="Customer" style="html=1;overflow=block;blockSpacing=1;whiteSpace=wrap;fontSize=16.7;spacing=9;strokeColor=#FFFFFF;rounded=1;absoluteArcSize=1;arcSize=9;fillColor=#unset;strokeWidth=NaN;lucidId=JsT934b4GYuY;fontColor=#FFFFFF;" vertex="1" parent="1">
          <mxGeometry x="-465" y="225" width="120" height="90" as="geometry" />
        </mxCell>
        <mxCell id="W9RVa1DGL_Kj53iAcw9j-121" style="edgeStyle=orthogonalEdgeStyle;rounded=0;orthogonalLoop=1;jettySize=auto;html=1;exitX=1;exitY=0.5;exitDx=0;exitDy=0;entryX=0.5;entryY=1;entryDx=0;entryDy=0;" edge="1" parent="1" source="W9RVa1DGL_Kj53iAcw9j-2" target="W9RVa1DGL_Kj53iAcw9j-117">
          <mxGeometry relative="1" as="geometry" />
        </mxCell>
        <mxCell id="W9RVa1DGL_Kj53iAcw9j-122" style="edgeStyle=orthogonalEdgeStyle;rounded=0;orthogonalLoop=1;jettySize=auto;html=1;exitX=0;exitY=0.5;exitDx=0;exitDy=0;entryX=0.5;entryY=1;entryDx=0;entryDy=0;" edge="1" parent="1" source="W9RVa1DGL_Kj53iAcw9j-2" target="W9RVa1DGL_Kj53iAcw9j-118">
          <mxGeometry relative="1" as="geometry" />
        </mxCell>
        <mxCell id="W9RVa1DGL_Kj53iAcw9j-126" style="edgeStyle=orthogonalEdgeStyle;rounded=0;orthogonalLoop=1;jettySize=auto;html=1;exitX=0.5;exitY=1;exitDx=0;exitDy=0;entryX=0.5;entryY=0;entryDx=0;entryDy=0;" edge="1" parent="1" source="W9RVa1DGL_Kj53iAcw9j-2" target="W9RVa1DGL_Kj53iAcw9j-124">
          <mxGeometry relative="1" as="geometry" />
        </mxCell>
        <mxCell id="W9RVa1DGL_Kj53iAcw9j-2" value="Admin" style="html=1;overflow=block;blockSpacing=1;whiteSpace=wrap;fontSize=16.7;spacing=9;strokeColor=#FFFFFF;rounded=1;absoluteArcSize=1;arcSize=9;fillColor=#unset;strokeWidth=NaN;lucidId=-sT95giRV-Sf;fontColor=#FFFFFF;" vertex="1" parent="1">
          <mxGeometry x="-465" y="-360" width="120" height="90" as="geometry" />
        </mxCell>
        <mxCell id="W9RVa1DGL_Kj53iAcw9j-3" value="Rooms" style="html=1;overflow=block;blockSpacing=1;whiteSpace=wrap;fontSize=16.7;spacing=9;strokeColor=#FFFFFF;rounded=1;absoluteArcSize=1;arcSize=9;fillColor=#unset;strokeWidth=NaN;lucidId=gtT9UKg2Y8n1;fontColor=#FFFFFF;" vertex="1" parent="1">
          <mxGeometry x="-930" y="-360" width="120" height="90" as="geometry" />
        </mxCell>
        <mxCell id="W9RVa1DGL_Kj53iAcw9j-4" value="&lt;font&gt;Seats&lt;/font&gt;" style="html=1;overflow=block;blockSpacing=1;whiteSpace=wrap;fontSize=16.7;spacing=9;strokeColor=#FFFFFF;rounded=1;absoluteArcSize=1;arcSize=9;fillColor=#unset;strokeWidth=NaN;lucidId=ltT9fEC2uQp2;fontColor=#FFFFFF;" vertex="1" parent="1">
          <mxGeometry x="-930" y="-615" width="120" height="90" as="geometry" />
        </mxCell>
        <mxCell id="W9RVa1DGL_Kj53iAcw9j-5" value="Theatres" style="html=1;overflow=block;blockSpacing=1;whiteSpace=wrap;fontSize=16.7;spacing=9;strokeColor=#FFFFFF;rounded=1;absoluteArcSize=1;arcSize=9;fillColor=#unset;strokeWidth=NaN;lucidId=ttT9oHB_7rwH;fontColor=#FFFFFF;" vertex="1" parent="1">
          <mxGeometry x="-930" y="-105" width="120" height="90" as="geometry" />
        </mxCell>
        <mxCell id="W9RVa1DGL_Kj53iAcw9j-6" value="Tickets" style="html=1;overflow=block;blockSpacing=1;whiteSpace=wrap;fontSize=16.7;spacing=9;strokeColor=#FFFFFF;rounded=1;absoluteArcSize=1;arcSize=9;fillColor=#unset;strokeWidth=NaN;lucidId=OtT9mqlh41Xv;fontColor=#FFFFFF;" vertex="1" parent="1">
          <mxGeometry x="-465" y="-105" width="120" height="90" as="geometry" />
        </mxCell>
        <mxCell id="W9RVa1DGL_Kj53iAcw9j-139" style="edgeStyle=orthogonalEdgeStyle;rounded=0;orthogonalLoop=1;jettySize=auto;html=1;exitX=1;exitY=0.5;exitDx=0;exitDy=0;entryX=0;entryY=0.5;entryDx=0;entryDy=0;" edge="1" parent="1" source="W9RVa1DGL_Kj53iAcw9j-7" target="W9RVa1DGL_Kj53iAcw9j-133">
          <mxGeometry relative="1" as="geometry" />
        </mxCell>
        <mxCell id="W9RVa1DGL_Kj53iAcw9j-140" style="edgeStyle=orthogonalEdgeStyle;rounded=0;orthogonalLoop=1;jettySize=auto;html=1;exitX=0.5;exitY=0;exitDx=0;exitDy=0;entryX=0.5;entryY=1;entryDx=0;entryDy=0;" edge="1" parent="1" source="W9RVa1DGL_Kj53iAcw9j-7" target="W9RVa1DGL_Kj53iAcw9j-134">
          <mxGeometry relative="1" as="geometry" />
        </mxCell>
        <mxCell id="W9RVa1DGL_Kj53iAcw9j-7" value="Voucher" style="html=1;overflow=block;blockSpacing=1;whiteSpace=wrap;fontSize=16.7;spacing=9;strokeColor=#FFFFFF;rounded=1;absoluteArcSize=1;arcSize=9;fillColor=#unset;strokeWidth=NaN;lucidId=~tT946fdT9vB;fontColor=#FFFFFF;" vertex="1" parent="1">
          <mxGeometry x="-80" y="-435" width="120" height="90" as="geometry" />
        </mxCell>
        <mxCell id="W9RVa1DGL_Kj53iAcw9j-114" style="edgeStyle=orthogonalEdgeStyle;rounded=0;orthogonalLoop=1;jettySize=auto;html=1;exitX=1;exitY=0;exitDx=0;exitDy=0;entryX=0.5;entryY=1;entryDx=0;entryDy=0;" edge="1" parent="1" source="W9RVa1DGL_Kj53iAcw9j-8" target="W9RVa1DGL_Kj53iAcw9j-115">
          <mxGeometry relative="1" as="geometry">
            <mxPoint x="110" y="-170.00000000000023" as="targetPoint" />
          </mxGeometry>
        </mxCell>
        <mxCell id="W9RVa1DGL_Kj53iAcw9j-8" value="Show" style="html=1;overflow=block;blockSpacing=1;whiteSpace=wrap;fontSize=16.7;spacing=9;strokeColor=#FFFFFF;rounded=1;absoluteArcSize=1;arcSize=9;fillColor=#unset;strokeWidth=NaN;lucidId=muT9omr~xN_e;fontColor=#FFFFFF;" vertex="1" parent="1">
          <mxGeometry x="-75" y="-105" width="120" height="90" as="geometry" />
        </mxCell>
        <mxCell id="W9RVa1DGL_Kj53iAcw9j-9" value="Movie" style="html=1;overflow=block;blockSpacing=1;whiteSpace=wrap;fontSize=16.7;spacing=9;strokeColor=#FFFFFF;rounded=1;absoluteArcSize=1;arcSize=9;fillColor=#unset;strokeWidth=NaN;lucidId=9vT9kW2NE1o-;fontColor=#FFFFFF;" vertex="1" parent="1">
          <mxGeometry x="375" y="-105" width="120" height="90" as="geometry" />
        </mxCell>
        <mxCell id="W9RVa1DGL_Kj53iAcw9j-10" value="" style="html=1;jettySize=18;whiteSpace=wrap;fontSize=13;strokeColor=#FFFFFF;strokeOpacity=100;strokeWidth=0.8;rounded=1;arcSize=12;edgeStyle=orthogonalEdgeStyle;startArrow=none;endArrow=block;endFill=1;exitX=0.012;exitY=0.5;exitPerimeter=0;entryX=1.006;entryY=0.5;entryPerimeter=0;lucidId=.DT9x2tY7gJr;fontColor=#FFFFFF;" edge="1" parent="1" source="W9RVa1DGL_Kj53iAcw9j-34" target="W9RVa1DGL_Kj53iAcw9j-5">
          <mxGeometry width="100" height="100" relative="1" as="geometry">
            <Array as="points" />
          </mxGeometry>
        </mxCell>
        <mxCell id="W9RVa1DGL_Kj53iAcw9j-11" value="" style="html=1;jettySize=18;whiteSpace=wrap;fontSize=13;strokeColor=#FFFFFF;strokeOpacity=100;strokeWidth=0.8;rounded=1;arcSize=12;edgeStyle=orthogonalEdgeStyle;startArrow=none;endArrow=block;endFill=1;exitX=-0.006;exitY=0.5;exitPerimeter=0;entryX=0.988;entryY=0.5;entryPerimeter=0;lucidId=0wT902rUrVDJ;fontColor=#FFFFFF;" edge="1" parent="1" source="W9RVa1DGL_Kj53iAcw9j-6" target="W9RVa1DGL_Kj53iAcw9j-34">
          <mxGeometry width="100" height="100" relative="1" as="geometry">
            <Array as="points" />
          </mxGeometry>
        </mxCell>
        <mxCell id="W9RVa1DGL_Kj53iAcw9j-12" value="" style="html=1;jettySize=18;whiteSpace=wrap;fontSize=13;strokeColor=#FFFFFF;strokeOpacity=100;strokeWidth=0.8;rounded=1;arcSize=12;edgeStyle=orthogonalEdgeStyle;startArrow=none;endArrow=block;endFill=1;exitX=0.5;exitY=-0.008;exitPerimeter=0;entryX=0.5;entryY=0.992;entryPerimeter=0;lucidId=YxT9m6t~Y46Z;fontColor=#FFFFFF;" edge="1" parent="1" source="W9RVa1DGL_Kj53iAcw9j-5" target="W9RVa1DGL_Kj53iAcw9j-22">
          <mxGeometry width="100" height="100" relative="1" as="geometry">
            <Array as="points" />
          </mxGeometry>
        </mxCell>
        <mxCell id="W9RVa1DGL_Kj53iAcw9j-13" value="" style="html=1;jettySize=18;whiteSpace=wrap;fontSize=13;strokeColor=#FFFFFF;strokeOpacity=100;strokeWidth=0.8;rounded=1;arcSize=12;edgeStyle=orthogonalEdgeStyle;startArrow=none;endArrow=block;endFill=1;exitX=0.5;exitY=0.008;exitPerimeter=0;entryX=0.5;entryY=1.008;entryPerimeter=0;lucidId=_BT9-V60n.7M;fontColor=#FFFFFF;" edge="1" parent="1" source="W9RVa1DGL_Kj53iAcw9j-22" target="W9RVa1DGL_Kj53iAcw9j-3">
          <mxGeometry width="100" height="100" relative="1" as="geometry">
            <Array as="points" />
          </mxGeometry>
        </mxCell>
        <mxCell id="W9RVa1DGL_Kj53iAcw9j-14" value="" style="html=1;jettySize=18;whiteSpace=wrap;fontSize=13;strokeColor=#FFFFFF;strokeOpacity=100;strokeWidth=0.8;rounded=1;arcSize=12;edgeStyle=orthogonalEdgeStyle;startArrow=none;endArrow=block;endFill=1;exitX=0.5;exitY=-0.008;exitPerimeter=0;entryX=0.5;entryY=0.992;entryPerimeter=0;lucidId=ZxT9UkFO7YkN;fontColor=#FFFFFF;" edge="1" parent="1" source="W9RVa1DGL_Kj53iAcw9j-3" target="W9RVa1DGL_Kj53iAcw9j-23">
          <mxGeometry width="100" height="100" relative="1" as="geometry">
            <Array as="points" />
          </mxGeometry>
        </mxCell>
        <mxCell id="W9RVa1DGL_Kj53iAcw9j-15" value="" style="html=1;jettySize=18;whiteSpace=wrap;fontSize=13;strokeColor=#FFFFFF;strokeOpacity=100;strokeWidth=0.8;rounded=1;arcSize=12;edgeStyle=orthogonalEdgeStyle;startArrow=none;endArrow=block;endFill=1;exitX=0.5;exitY=0.008;exitPerimeter=0;entryX=0.5;entryY=1.008;entryPerimeter=0;lucidId=5BT9ZFG.MT5I;fontColor=#FFFFFF;" edge="1" parent="1" source="W9RVa1DGL_Kj53iAcw9j-23" target="W9RVa1DGL_Kj53iAcw9j-4">
          <mxGeometry width="100" height="100" relative="1" as="geometry">
            <Array as="points" />
          </mxGeometry>
        </mxCell>
        <mxCell id="W9RVa1DGL_Kj53iAcw9j-16" value="" style="html=1;jettySize=18;whiteSpace=wrap;fontSize=13;strokeColor=#FFFFFF;strokeOpacity=100;strokeWidth=0.8;rounded=1;arcSize=12;edgeStyle=orthogonalEdgeStyle;startArrow=none;endArrow=block;endFill=1;exitX=0.5;exitY=-0.008;exitPerimeter=0;entryX=0.5;entryY=1.013;entryPerimeter=0;lucidId=ayT99jhnlaan;fontColor=#FFFFFF;" edge="1" parent="1" source="W9RVa1DGL_Kj53iAcw9j-4" target="W9RVa1DGL_Kj53iAcw9j-17">
          <mxGeometry width="100" height="100" relative="1" as="geometry">
            <Array as="points" />
          </mxGeometry>
        </mxCell>
        <mxCell id="W9RVa1DGL_Kj53iAcw9j-17" value="SeatName" style="html=1;overflow=block;blockSpacing=1;whiteSpace=wrap;fontSize=16.7;spacing=3.8;strokeColor=#FFFFFF;rounded=1;absoluteArcSize=1;arcSize=9;fillColor=#unset;strokeWidth=NaN;lucidId=dyT9Az2M2tNe;" vertex="1" parent="1">
          <mxGeometry x="-930" y="-750" width="120" height="60" as="geometry" />
        </mxCell>
        <mxCell id="W9RVa1DGL_Kj53iAcw9j-18" value="" style="html=1;jettySize=18;whiteSpace=wrap;fontSize=13;strokeColor=#FFFFFF;strokeOpacity=100;strokeWidth=0.8;rounded=1;arcSize=12;edgeStyle=orthogonalEdgeStyle;startArrow=none;endArrow=block;endFill=1;exitX=-0.006;exitY=0.5;exitPerimeter=0;entryX=0.5;entryY=1.013;entryPerimeter=0;lucidId=gyT9ZJPVXHfn;fontColor=#FFFFFF;" edge="1" parent="1" source="W9RVa1DGL_Kj53iAcw9j-4" target="W9RVa1DGL_Kj53iAcw9j-19">
          <mxGeometry width="100" height="100" relative="1" as="geometry">
            <Array as="points" />
          </mxGeometry>
        </mxCell>
        <mxCell id="W9RVa1DGL_Kj53iAcw9j-19" value="SeatID" style="html=1;overflow=block;blockSpacing=1;whiteSpace=wrap;fontSize=16.7;spacing=3.8;strokeColor=#FFFFFF;rounded=1;absoluteArcSize=1;arcSize=9;fillColor=#unset;strokeWidth=NaN;lucidId=gyT9iBJZPHS6;fontColor=#FFFFFF;" vertex="1" parent="1">
          <mxGeometry x="-1095" y="-675" width="120" height="60" as="geometry" />
        </mxCell>
        <mxCell id="W9RVa1DGL_Kj53iAcw9j-20" value="" style="html=1;jettySize=18;whiteSpace=wrap;fontSize=13;strokeColor=#FFFFFF;strokeOpacity=100;strokeWidth=0.8;rounded=1;arcSize=12;edgeStyle=orthogonalEdgeStyle;startArrow=none;endArrow=block;endFill=1;exitX=1.006;exitY=0.5;exitPerimeter=0;entryX=0.5;entryY=1.013;entryPerimeter=0;lucidId=oyT9NHm8CIJg;fontColor=#FFFFFF;" edge="1" parent="1" source="W9RVa1DGL_Kj53iAcw9j-4" target="W9RVa1DGL_Kj53iAcw9j-21">
          <mxGeometry width="100" height="100" relative="1" as="geometry">
            <Array as="points" />
          </mxGeometry>
        </mxCell>
        <mxCell id="W9RVa1DGL_Kj53iAcw9j-21" value="Number of Seats" style="html=1;overflow=block;blockSpacing=1;whiteSpace=wrap;fontSize=16.7;spacing=3.8;strokeColor=#FFFFFF;rounded=1;absoluteArcSize=1;arcSize=9;fillColor=#unset;strokeWidth=NaN;lucidId=pyT9xmGKzDkO;fontColor=#FFFFFF;" vertex="1" parent="1">
          <mxGeometry x="-765" y="-660" width="120" height="60" as="geometry" />
        </mxCell>
        <mxCell id="W9RVa1DGL_Kj53iAcw9j-22" value="has" style="html=1;overflow=block;blockSpacing=1;whiteSpace=wrap;rhombus;fontSize=16.7;spacing=9;strokeColor=#FFFFFF;rounded=1;absoluteArcSize=1;arcSize=9;fillColor=#unset;strokeWidth=NaN;lucidId=~AT9MH6vmPTP;fontColor=#FFFFFF;" vertex="1" parent="1">
          <mxGeometry x="-930" y="-232" width="120" height="90" as="geometry" />
        </mxCell>
        <mxCell id="W9RVa1DGL_Kj53iAcw9j-23" value="has" style="html=1;overflow=block;blockSpacing=1;whiteSpace=wrap;rhombus;fontSize=16.7;spacing=3.8;strokeColor=#FFFFFF;rounded=1;absoluteArcSize=1;arcSize=9;fillColor=#unset;strokeWidth=NaN;lucidId=UBT9nto1rAGQ;fontColor=#FFFFFF;" vertex="1" parent="1">
          <mxGeometry x="-930" y="-487" width="120" height="90" as="geometry" />
        </mxCell>
        <mxCell id="W9RVa1DGL_Kj53iAcw9j-24" value="" style="html=1;jettySize=18;whiteSpace=wrap;fontSize=13;strokeColor=#FFFFFF;strokeOpacity=100;strokeWidth=0.8;rounded=1;arcSize=12;edgeStyle=orthogonalEdgeStyle;startArrow=none;endArrow=block;endFill=1;exitX=-0.006;exitY=0.5;exitPerimeter=0;entryX=1.006;entryY=0.5;entryPerimeter=0;lucidId=kCT9ytd9gZq6;fontColor=#FFFFFF;" edge="1" parent="1" source="W9RVa1DGL_Kj53iAcw9j-3" target="W9RVa1DGL_Kj53iAcw9j-25">
          <mxGeometry width="100" height="100" relative="1" as="geometry">
            <Array as="points" />
          </mxGeometry>
        </mxCell>
        <mxCell id="W9RVa1DGL_Kj53iAcw9j-25" value="RoomID" style="html=1;overflow=block;blockSpacing=1;whiteSpace=wrap;fontSize=16.7;spacing=3.8;strokeColor=#FFFFFF;rounded=1;absoluteArcSize=1;arcSize=9;fillColor=#unset;strokeWidth=NaN;lucidId=lCT9LCA_op~5;fontColor=#FFFFFF;" vertex="1" parent="1">
          <mxGeometry x="-1125" y="-345" width="120" height="60" as="geometry" />
        </mxCell>
        <mxCell id="W9RVa1DGL_Kj53iAcw9j-26" value="" style="html=1;jettySize=18;whiteSpace=wrap;fontSize=13;strokeColor=#FFFFFF;strokeOpacity=100;strokeWidth=0.8;rounded=1;arcSize=12;edgeStyle=orthogonalEdgeStyle;startArrow=none;endArrow=block;endFill=1;exitX=1.006;exitY=0.5;exitPerimeter=0;entryX=-0.006;entryY=0.5;entryPerimeter=0;lucidId=tCT9U-tc-KYr;fontColor=#FFFFFF;" edge="1" parent="1" source="W9RVa1DGL_Kj53iAcw9j-3" target="W9RVa1DGL_Kj53iAcw9j-27">
          <mxGeometry width="100" height="100" relative="1" as="geometry">
            <Array as="points" />
          </mxGeometry>
        </mxCell>
        <mxCell id="W9RVa1DGL_Kj53iAcw9j-27" value="RoomName" style="html=1;overflow=block;blockSpacing=1;whiteSpace=wrap;fontSize=16.7;spacing=3.8;strokeColor=#FFFFFF;rounded=1;absoluteArcSize=1;arcSize=9;fillColor=#unset;strokeWidth=NaN;lucidId=uCT9uK2tUr7.;fontColor=#FFFFFF;" vertex="1" parent="1">
          <mxGeometry x="-720" y="-345" width="120" height="60" as="geometry" />
        </mxCell>
        <mxCell id="W9RVa1DGL_Kj53iAcw9j-28" value="" style="html=1;jettySize=18;whiteSpace=wrap;fontSize=13;strokeColor=#FFFFFF;strokeOpacity=100;strokeWidth=0.8;rounded=1;arcSize=12;edgeStyle=orthogonalEdgeStyle;startArrow=none;endArrow=block;endFill=1;exitX=-0.006;exitY=0.5;exitPerimeter=0;entryX=1.006;entryY=0.5;entryPerimeter=0;lucidId=KCT9l5RIrc23;fontColor=#FFFFFF;" edge="1" parent="1" source="W9RVa1DGL_Kj53iAcw9j-5" target="W9RVa1DGL_Kj53iAcw9j-29">
          <mxGeometry width="100" height="100" relative="1" as="geometry">
            <Array as="points" />
          </mxGeometry>
        </mxCell>
        <mxCell id="W9RVa1DGL_Kj53iAcw9j-29" value="TheatreID" style="html=1;overflow=block;blockSpacing=1;whiteSpace=wrap;fontSize=16.7;spacing=3.8;strokeColor=#FFFFFF;rounded=1;absoluteArcSize=1;arcSize=9;fillColor=#unset;strokeWidth=NaN;lucidId=LCT9hvvp0P.I;fontColor=#FFFFFF;" vertex="1" parent="1">
          <mxGeometry x="-1140" y="-90" width="120" height="60" as="geometry" />
        </mxCell>
        <mxCell id="W9RVa1DGL_Kj53iAcw9j-30" value="" style="html=1;jettySize=18;whiteSpace=wrap;fontSize=13;strokeColor=#FFFFFF;strokeOpacity=100;strokeWidth=0.8;rounded=1;arcSize=12;edgeStyle=orthogonalEdgeStyle;startArrow=none;endArrow=block;endFill=1;exitX=0.5;exitY=1.008;exitPerimeter=0;entryX=0.5;entryY=-0.012;entryPerimeter=0;lucidId=1CT9nk56qhIA;fontColor=#FFFFFF;" edge="1" parent="1" source="W9RVa1DGL_Kj53iAcw9j-5" target="W9RVa1DGL_Kj53iAcw9j-31">
          <mxGeometry width="100" height="100" relative="1" as="geometry">
            <Array as="points" />
          </mxGeometry>
        </mxCell>
        <mxCell id="W9RVa1DGL_Kj53iAcw9j-31" value="TheatreName" style="html=1;overflow=block;blockSpacing=1;whiteSpace=wrap;fontSize=16.7;spacing=3.8;strokeColor=#FFFFFF;rounded=1;absoluteArcSize=1;arcSize=9;fillColor=#unset;strokeWidth=NaN;lucidId=1CT95anMkq3S;fontColor=#FFFFFF;" vertex="1" parent="1">
          <mxGeometry x="-930" y="60" width="120" height="60" as="geometry" />
        </mxCell>
        <mxCell id="W9RVa1DGL_Kj53iAcw9j-32" value="" style="html=1;jettySize=18;whiteSpace=wrap;fontSize=13;strokeColor=#FFFFFF;strokeOpacity=100;strokeWidth=0.8;rounded=1;arcSize=12;edgeStyle=orthogonalEdgeStyle;startArrow=none;endArrow=block;endFill=1;exitX=-0.001;exitY=0.976;exitPerimeter=0;entryX=1.006;entryY=0.5;entryPerimeter=0;lucidId=gDT9RHNw1EB1;fontColor=#FFFFFF;" edge="1" parent="1" source="W9RVa1DGL_Kj53iAcw9j-5" target="W9RVa1DGL_Kj53iAcw9j-33">
          <mxGeometry width="100" height="100" relative="1" as="geometry">
            <Array as="points" />
          </mxGeometry>
        </mxCell>
        <mxCell id="W9RVa1DGL_Kj53iAcw9j-33" value="Locattion" style="html=1;overflow=block;blockSpacing=1;whiteSpace=wrap;fontSize=16.7;spacing=3.8;strokeColor=#FFFFFF;rounded=1;absoluteArcSize=1;arcSize=9;fillColor=#unset;strokeWidth=NaN;lucidId=hDT9zd6QbbC0;fontColor=#FFFFFF;" vertex="1" parent="1">
          <mxGeometry x="-1140" y="15" width="120" height="60" as="geometry" />
        </mxCell>
        <mxCell id="W9RVa1DGL_Kj53iAcw9j-34" value="has" style="html=1;overflow=block;blockSpacing=1;whiteSpace=wrap;rhombus;fontSize=16.7;spacing=3.8;strokeColor=#FFFFFF;rounded=1;absoluteArcSize=1;arcSize=9;fillColor=#unset;strokeWidth=NaN;lucidId=6DT95ZKTTyqn;fontColor=#FFFFFF;" vertex="1" parent="1">
          <mxGeometry x="-697" y="-105" width="120" height="90" as="geometry" />
        </mxCell>
        <mxCell id="W9RVa1DGL_Kj53iAcw9j-35" value="" style="html=1;jettySize=18;whiteSpace=wrap;fontSize=13;strokeColor=#FFFFFF;strokeOpacity=100;strokeWidth=0.8;rounded=1;arcSize=12;edgeStyle=orthogonalEdgeStyle;startArrow=none;endArrow=block;endFill=1;exitX=0.5;exitY=-0.008;exitPerimeter=0;entryX=0.5;entryY=0.992;entryPerimeter=0;lucidId=yET9n0d9eOCh;fontColor=#FFFFFF;" edge="1" parent="1" source="W9RVa1DGL_Kj53iAcw9j-1" target="W9RVa1DGL_Kj53iAcw9j-37">
          <mxGeometry width="100" height="100" relative="1" as="geometry">
            <Array as="points" />
          </mxGeometry>
        </mxCell>
        <mxCell id="W9RVa1DGL_Kj53iAcw9j-36" value="" style="html=1;jettySize=18;whiteSpace=wrap;fontSize=13;strokeColor=#FFFFFF;strokeOpacity=100;strokeWidth=0.8;rounded=1;arcSize=12;edgeStyle=orthogonalEdgeStyle;startArrow=none;endArrow=block;endFill=1;exitX=0.5;exitY=0.008;exitPerimeter=0;entryX=0.5;entryY=1.008;entryPerimeter=0;lucidId=EET950i_-xUw;fontColor=#FFFFFF;" edge="1" parent="1" source="W9RVa1DGL_Kj53iAcw9j-37" target="W9RVa1DGL_Kj53iAcw9j-6">
          <mxGeometry width="100" height="100" relative="1" as="geometry">
            <Array as="points" />
          </mxGeometry>
        </mxCell>
        <mxCell id="W9RVa1DGL_Kj53iAcw9j-37" value="booking" style="html=1;overflow=block;blockSpacing=1;whiteSpace=wrap;rhombus;fontSize=16.7;spacing=3.8;strokeColor=#FFFFFF;rounded=1;absoluteArcSize=1;arcSize=9;fillColor=#unset;strokeWidth=NaN;lucidId=AET9E7P2-iRN;fontColor=#FFFFFF;" vertex="1" parent="1">
          <mxGeometry x="-465" y="60" width="120" height="90" as="geometry" />
        </mxCell>
        <mxCell id="W9RVa1DGL_Kj53iAcw9j-38" value="has" style="html=1;overflow=block;blockSpacing=1;whiteSpace=wrap;rhombus;fontSize=16.7;spacing=3.8;strokeColor=#FFFFFF;rounded=1;absoluteArcSize=1;arcSize=9;fillColor=#unset;strokeWidth=NaN;lucidId=nFT9i88-t6_p;fontColor=#FFFFFF;" vertex="1" parent="1">
          <mxGeometry x="-260" y="-105" width="120" height="90" as="geometry" />
        </mxCell>
        <mxCell id="W9RVa1DGL_Kj53iAcw9j-39" value="" style="html=1;jettySize=18;whiteSpace=wrap;fontSize=13;strokeColor=#FFFFFF;strokeOpacity=100;strokeWidth=0.8;rounded=1;arcSize=12;edgeStyle=orthogonalEdgeStyle;startArrow=none;endArrow=block;endFill=1;exitX=1.006;exitY=0.5;exitPerimeter=0;entryX=0.012;entryY=0.5;entryPerimeter=0;lucidId=vFT9WPQvwra-;fontColor=#FFFFFF;" edge="1" parent="1" source="W9RVa1DGL_Kj53iAcw9j-6" target="W9RVa1DGL_Kj53iAcw9j-38">
          <mxGeometry width="100" height="100" relative="1" as="geometry">
            <Array as="points" />
          </mxGeometry>
        </mxCell>
        <mxCell id="W9RVa1DGL_Kj53iAcw9j-40" value="" style="html=1;jettySize=18;whiteSpace=wrap;fontSize=13;strokeColor=#FFFFFF;strokeOpacity=100;strokeWidth=0.8;rounded=1;arcSize=12;edgeStyle=orthogonalEdgeStyle;startArrow=none;endArrow=block;endFill=1;exitX=0.988;exitY=0.5;exitPerimeter=0;entryX=-0.006;entryY=0.5;entryPerimeter=0;lucidId=xFT9BqAVk3-p;fontColor=#FFFFFF;" edge="1" parent="1" source="W9RVa1DGL_Kj53iAcw9j-38" target="W9RVa1DGL_Kj53iAcw9j-8">
          <mxGeometry width="100" height="100" relative="1" as="geometry">
            <Array as="points" />
          </mxGeometry>
        </mxCell>
        <mxCell id="W9RVa1DGL_Kj53iAcw9j-41" value="" style="html=1;jettySize=18;whiteSpace=wrap;fontSize=13;strokeColor=#FFFFFF;strokeOpacity=100;strokeWidth=0.8;rounded=1;arcSize=12;edgeStyle=orthogonalEdgeStyle;startArrow=none;endArrow=block;endFill=1;exitX=1.006;exitY=0.5;exitPerimeter=0;entryX=-0.006;entryY=0.5;entryPerimeter=0;lucidId=QFT9SvZ5yRYQ;fontColor=#FFFFFF;" edge="1" parent="1" source="W9RVa1DGL_Kj53iAcw9j-1" target="W9RVa1DGL_Kj53iAcw9j-42">
          <mxGeometry width="100" height="100" relative="1" as="geometry">
            <Array as="points" />
          </mxGeometry>
        </mxCell>
        <mxCell id="W9RVa1DGL_Kj53iAcw9j-42" value="customerID" style="html=1;overflow=block;blockSpacing=1;whiteSpace=wrap;fontSize=16.7;spacing=9;strokeColor=#FFFFFF;rounded=1;absoluteArcSize=1;arcSize=9;fillColor=#unset;strokeWidth=NaN;lucidId=QFT9ZqB6MZ-R;fontColor=#FFFFFF;" vertex="1" parent="1">
          <mxGeometry x="-285" y="240" width="120" height="60" as="geometry" />
        </mxCell>
        <mxCell id="W9RVa1DGL_Kj53iAcw9j-43" value="" style="html=1;jettySize=18;whiteSpace=wrap;fontSize=13;strokeColor=#FFFFFF;strokeOpacity=100;strokeWidth=0.8;rounded=1;arcSize=12;edgeStyle=orthogonalEdgeStyle;startArrow=none;endArrow=block;endFill=1;exitX=0.5;exitY=1.008;exitPerimeter=0;entryX=0.5;entryY=-0.012;entryPerimeter=0;lucidId=cGT9tBohBjkT;fontColor=#FFFFFF;" edge="1" parent="1" source="W9RVa1DGL_Kj53iAcw9j-1" target="W9RVa1DGL_Kj53iAcw9j-44">
          <mxGeometry width="100" height="100" relative="1" as="geometry">
            <Array as="points" />
          </mxGeometry>
        </mxCell>
        <mxCell id="W9RVa1DGL_Kj53iAcw9j-44" value="email" style="html=1;overflow=block;blockSpacing=1;whiteSpace=wrap;fontSize=16.7;spacing=9;strokeColor=#FFFFFF;rounded=1;absoluteArcSize=1;arcSize=9;fillColor=#unset;strokeWidth=NaN;lucidId=cGT9I_xwZ5zT;fontColor=#FFFFFF;" vertex="1" parent="1">
          <mxGeometry x="-465" y="390" width="120" height="60" as="geometry" />
        </mxCell>
        <mxCell id="W9RVa1DGL_Kj53iAcw9j-45" value="" style="html=1;jettySize=18;whiteSpace=wrap;fontSize=13;strokeColor=#FFFFFF;strokeOpacity=100;strokeWidth=0.8;rounded=1;arcSize=12;edgeStyle=orthogonalEdgeStyle;startArrow=none;endArrow=block;endFill=1;exitX=-0.006;exitY=0.5;exitPerimeter=0;entryX=1.006;entryY=0.5;entryPerimeter=0;lucidId=wGT928Z5pGqk;fontColor=#FFFFFF;" edge="1" parent="1" source="W9RVa1DGL_Kj53iAcw9j-1" target="W9RVa1DGL_Kj53iAcw9j-46">
          <mxGeometry width="100" height="100" relative="1" as="geometry">
            <Array as="points" />
          </mxGeometry>
        </mxCell>
        <mxCell id="W9RVa1DGL_Kj53iAcw9j-46" value="password" style="html=1;overflow=block;blockSpacing=1;whiteSpace=wrap;fontSize=16.7;spacing=9;strokeColor=#FFFFFF;rounded=1;absoluteArcSize=1;arcSize=9;fillColor=#unset;strokeWidth=NaN;lucidId=wGT980F5IylI;fontColor=#FFFFFF;" vertex="1" parent="1">
          <mxGeometry x="-645" y="240" width="120" height="60" as="geometry" />
        </mxCell>
        <mxCell id="W9RVa1DGL_Kj53iAcw9j-47" value="" style="html=1;jettySize=18;whiteSpace=wrap;fontSize=13;strokeColor=#FFFFFF;strokeOpacity=100;strokeWidth=0.8;rounded=1;arcSize=12;edgeStyle=orthogonalEdgeStyle;startArrow=none;endArrow=block;endFill=1;exitX=0.963;exitY=1.008;exitPerimeter=0;entryX=-0.006;entryY=0.5;entryPerimeter=0;lucidId=ZGT94g0fonZK;fontColor=#FFFFFF;" edge="1" parent="1" source="W9RVa1DGL_Kj53iAcw9j-1" target="W9RVa1DGL_Kj53iAcw9j-48">
          <mxGeometry width="100" height="100" relative="1" as="geometry">
            <Array as="points" />
          </mxGeometry>
        </mxCell>
        <mxCell id="W9RVa1DGL_Kj53iAcw9j-48" value="customerName" style="html=1;overflow=block;blockSpacing=1;whiteSpace=wrap;fontSize=16.7;spacing=9;strokeColor=#FFFFFF;rounded=1;absoluteArcSize=1;arcSize=9;fillColor=#unset;strokeWidth=NaN;lucidId=jHT9LDraJivb;fontColor=#FFFFFF;" vertex="1" parent="1">
          <mxGeometry x="-285" y="345" width="120" height="60" as="geometry" />
        </mxCell>
        <mxCell id="W9RVa1DGL_Kj53iAcw9j-49" value="" style="html=1;jettySize=18;whiteSpace=wrap;fontSize=13;strokeColor=#FFFFFF;strokeOpacity=100;strokeWidth=0.8;rounded=1;arcSize=12;edgeStyle=orthogonalEdgeStyle;startArrow=none;endArrow=block;endFill=1;exitX=0.01;exitY=0.995;exitPerimeter=0;entryX=1.006;entryY=0.5;entryPerimeter=0;lucidId=CHT90RAnj~8z;fontColor=#FFFFFF;" edge="1" parent="1" source="W9RVa1DGL_Kj53iAcw9j-1" target="W9RVa1DGL_Kj53iAcw9j-50">
          <mxGeometry width="100" height="100" relative="1" as="geometry">
            <Array as="points" />
          </mxGeometry>
        </mxCell>
        <mxCell id="W9RVa1DGL_Kj53iAcw9j-50" value="phone" style="html=1;overflow=block;blockSpacing=1;whiteSpace=wrap;fontSize=16.7;spacing=3.8;strokeColor=#FFFFFF;rounded=1;absoluteArcSize=1;arcSize=9;fillColor=#unset;strokeWidth=NaN;lucidId=KHT9m7wF.dC-;fontColor=#FFFFFF;" vertex="1" parent="1">
          <mxGeometry x="-645" y="345" width="120" height="60" as="geometry" />
        </mxCell>
        <mxCell id="W9RVa1DGL_Kj53iAcw9j-51" value="ticket_no" style="html=1;overflow=block;blockSpacing=1;whiteSpace=wrap;fontSize=16.7;spacing=3.8;strokeColor=#FFFFFF;rounded=1;absoluteArcSize=1;arcSize=9;fillColor=#unset;strokeWidth=NaN;lucidId=wIT9aXVGLY.D;fontColor=#FFFFFF;" vertex="1" parent="1">
          <mxGeometry x="-270" y="75" width="120" height="60" as="geometry" />
        </mxCell>
        <mxCell id="W9RVa1DGL_Kj53iAcw9j-52" value="" style="html=1;jettySize=18;whiteSpace=wrap;fontSize=13;strokeColor=#FFFFFF;strokeOpacity=100;strokeWidth=0.8;rounded=1;arcSize=12;edgeStyle=orthogonalEdgeStyle;startArrow=none;endArrow=block;endFill=1;exitX=0.988;exitY=0.5;exitPerimeter=0;entryX=-0.006;entryY=0.5;entryPerimeter=0;lucidId=DIT9iFkMCAoR;fontColor=#FFFFFF;" edge="1" parent="1" source="W9RVa1DGL_Kj53iAcw9j-37" target="W9RVa1DGL_Kj53iAcw9j-51">
          <mxGeometry width="100" height="100" relative="1" as="geometry">
            <Array as="points" />
          </mxGeometry>
        </mxCell>
        <mxCell id="W9RVa1DGL_Kj53iAcw9j-53" value="" style="html=1;jettySize=18;whiteSpace=wrap;fontSize=13;strokeColor=#FFFFFF;strokeOpacity=100;strokeWidth=0.8;rounded=1;arcSize=12;edgeStyle=orthogonalEdgeStyle;startArrow=none;endArrow=block;endFill=1;exitX=0.012;exitY=0.5;exitPerimeter=0;entryX=1.006;entryY=0.5;entryPerimeter=0;lucidId=8IT9-YXaiqqi;fontColor=#FFFFFF;" edge="1" parent="1" source="W9RVa1DGL_Kj53iAcw9j-37" target="W9RVa1DGL_Kj53iAcw9j-54">
          <mxGeometry width="100" height="100" relative="1" as="geometry">
            <Array as="points" />
          </mxGeometry>
        </mxCell>
        <mxCell id="W9RVa1DGL_Kj53iAcw9j-54" value="booking_Date" style="html=1;overflow=block;blockSpacing=1;whiteSpace=wrap;fontSize=16.7;spacing=3.8;strokeColor=#FFFFFF;rounded=1;absoluteArcSize=1;arcSize=9;fillColor=#unset;strokeWidth=NaN;lucidId=8IT9MKPn0pWm;fontColor=#FFFFFF;" vertex="1" parent="1">
          <mxGeometry x="-660" y="75" width="120" height="60" as="geometry" />
        </mxCell>
        <mxCell id="W9RVa1DGL_Kj53iAcw9j-55" value="" style="html=1;jettySize=18;whiteSpace=wrap;fontSize=13;strokeColor=#FFFFFF;strokeOpacity=100;strokeWidth=0.8;rounded=1;arcSize=12;edgeStyle=orthogonalEdgeStyle;startArrow=none;endArrow=block;endFill=1;exitX=0.988;exitY=0.5;exitPerimeter=0;entryX=-0.006;entryY=0.5;entryPerimeter=0;lucidId=YKT9H45wH99l;fontColor=#FFFFFF;" edge="1" parent="1" source="W9RVa1DGL_Kj53iAcw9j-57" target="W9RVa1DGL_Kj53iAcw9j-9">
          <mxGeometry width="100" height="100" relative="1" as="geometry">
            <Array as="points" />
          </mxGeometry>
        </mxCell>
        <mxCell id="W9RVa1DGL_Kj53iAcw9j-56" value="" style="html=1;jettySize=18;whiteSpace=wrap;fontSize=13;strokeColor=#FFFFFF;strokeOpacity=100;strokeWidth=0.8;rounded=1;arcSize=12;edgeStyle=orthogonalEdgeStyle;startArrow=none;endArrow=block;endFill=1;exitX=1.006;exitY=0.5;exitPerimeter=0;entryX=0.012;entryY=0.5;entryPerimeter=0;lucidId=QKT9wRbNkW2-;fontColor=#FFFFFF;" edge="1" parent="1" source="W9RVa1DGL_Kj53iAcw9j-8" target="W9RVa1DGL_Kj53iAcw9j-57">
          <mxGeometry width="100" height="100" relative="1" as="geometry">
            <Array as="points" />
          </mxGeometry>
        </mxCell>
        <mxCell id="W9RVa1DGL_Kj53iAcw9j-57" value="has" style="html=1;overflow=block;blockSpacing=1;whiteSpace=wrap;rhombus;fontSize=16.7;spacing=3.8;strokeColor=#FFFFFF;rounded=1;absoluteArcSize=1;arcSize=9;fillColor=#unset;strokeWidth=NaN;lucidId=SKT9L6FZPaEV;fontColor=#FFFFFF;" vertex="1" parent="1">
          <mxGeometry x="150" y="-105" width="120" height="90" as="geometry" />
        </mxCell>
        <mxCell id="W9RVa1DGL_Kj53iAcw9j-58" value="" style="html=1;jettySize=18;whiteSpace=wrap;fontSize=13;strokeColor=#FFFFFF;strokeOpacity=100;strokeWidth=0.8;rounded=1;arcSize=12;edgeStyle=orthogonalEdgeStyle;startArrow=none;endArrow=block;endFill=1;exitX=0.5;exitY=1.008;exitPerimeter=0;entryX=0.5;entryY=-0.012;entryPerimeter=0;lucidId=lLT9~j-qmHna;fontColor=#FFFFFF;" edge="1" parent="1" source="W9RVa1DGL_Kj53iAcw9j-9" target="W9RVa1DGL_Kj53iAcw9j-59">
          <mxGeometry width="100" height="100" relative="1" as="geometry">
            <Array as="points" />
          </mxGeometry>
        </mxCell>
        <mxCell id="W9RVa1DGL_Kj53iAcw9j-59" value="mv_id" style="html=1;overflow=block;blockSpacing=1;whiteSpace=wrap;fontSize=16.7;spacing=9;strokeColor=#FFFFFF;rounded=1;absoluteArcSize=1;arcSize=9;fillColor=#unset;strokeWidth=NaN;lucidId=lLT9vI~G8C..;fontColor=#FFFFFF;" vertex="1" parent="1">
          <mxGeometry x="375" y="60" width="120" height="60" as="geometry" />
        </mxCell>
        <mxCell id="W9RVa1DGL_Kj53iAcw9j-60" value="mv_name" style="html=1;overflow=block;blockSpacing=1;whiteSpace=wrap;fontSize=16.7;spacing=9;strokeColor=#unset;rounded=1;absoluteArcSize=1;arcSize=9;fillColor=#unset;strokeWidth=NaN;lucidId=JLT9qsmtv-Rv;fontColor=#FFFFFF;" vertex="1" parent="1">
          <mxGeometry x="610" y="-90" width="120" height="60" as="geometry" />
        </mxCell>
        <mxCell id="W9RVa1DGL_Kj53iAcw9j-62" value="SeatName" style="html=1;overflow=block;blockSpacing=1;whiteSpace=wrap;fontSize=16.7;spacing=3.8;strokeColor=#FFFFFF;rounded=1;absoluteArcSize=1;arcSize=9;fillColor=#unset;strokeWidth=NaN;lucidId=dyT9Az2M2tNe;" vertex="1" parent="1">
          <mxGeometry x="-930" y="-750" width="120" height="60" as="geometry" />
        </mxCell>
        <mxCell id="W9RVa1DGL_Kj53iAcw9j-63" value="SeatName" style="html=1;overflow=block;blockSpacing=1;whiteSpace=wrap;fontSize=16.7;spacing=3.8;strokeColor=#FFFFFF;rounded=1;absoluteArcSize=1;arcSize=9;fillColor=#unset;strokeWidth=NaN;lucidId=dyT9Az2M2tNe;" vertex="1" parent="1">
          <mxGeometry x="-930" y="-750" width="120" height="60" as="geometry" />
        </mxCell>
        <mxCell id="W9RVa1DGL_Kj53iAcw9j-64" value="SeatName" style="html=1;overflow=block;blockSpacing=1;whiteSpace=wrap;fontSize=16.7;spacing=3.8;strokeColor=#FFFFFF;rounded=1;absoluteArcSize=1;arcSize=9;fillColor=#unset;strokeWidth=NaN;lucidId=dyT9Az2M2tNe;fontColor=#FFFFFF;" vertex="1" parent="1">
          <mxGeometry x="-930" y="-750" width="120" height="60" as="geometry" />
        </mxCell>
        <mxCell id="W9RVa1DGL_Kj53iAcw9j-66" value="" style="endArrow=classic;html=1;rounded=0;entryX=0.5;entryY=1;entryDx=0;entryDy=0;" edge="1" parent="1" source="W9RVa1DGL_Kj53iAcw9j-4" target="W9RVa1DGL_Kj53iAcw9j-64">
          <mxGeometry width="50" height="50" relative="1" as="geometry">
            <mxPoint x="-500" y="-270" as="sourcePoint" />
            <mxPoint x="-450" y="-320" as="targetPoint" />
          </mxGeometry>
        </mxCell>
        <mxCell id="W9RVa1DGL_Kj53iAcw9j-67" value="" style="endArrow=classic;html=1;rounded=0;entryX=0;entryY=0.75;entryDx=0;entryDy=0;" edge="1" parent="1" target="W9RVa1DGL_Kj53iAcw9j-21">
          <mxGeometry width="50" height="50" relative="1" as="geometry">
            <mxPoint x="-815" y="-580" as="sourcePoint" />
            <mxPoint x="-765" y="-630" as="targetPoint" />
          </mxGeometry>
        </mxCell>
        <mxCell id="W9RVa1DGL_Kj53iAcw9j-68" value="" style="endArrow=classic;html=1;rounded=0;exitX=0;exitY=0.25;exitDx=0;exitDy=0;" edge="1" parent="1" source="W9RVa1DGL_Kj53iAcw9j-4" target="W9RVa1DGL_Kj53iAcw9j-19">
          <mxGeometry width="50" height="50" relative="1" as="geometry">
            <mxPoint x="-1010" y="-580" as="sourcePoint" />
            <mxPoint x="-970" y="-620" as="targetPoint" />
          </mxGeometry>
        </mxCell>
        <mxCell id="W9RVa1DGL_Kj53iAcw9j-69" value="" style="endArrow=classic;html=1;rounded=0;entryX=0.5;entryY=1;entryDx=0;entryDy=0;exitX=0.5;exitY=0;exitDx=0;exitDy=0;" edge="1" parent="1" source="W9RVa1DGL_Kj53iAcw9j-23" target="W9RVa1DGL_Kj53iAcw9j-4">
          <mxGeometry width="50" height="50" relative="1" as="geometry">
            <mxPoint x="-470" y="-240" as="sourcePoint" />
            <mxPoint x="-420" y="-290" as="targetPoint" />
          </mxGeometry>
        </mxCell>
        <mxCell id="W9RVa1DGL_Kj53iAcw9j-70" value="" style="endArrow=classic;html=1;rounded=0;entryX=0.5;entryY=1;entryDx=0;entryDy=0;" edge="1" parent="1" source="W9RVa1DGL_Kj53iAcw9j-3" target="W9RVa1DGL_Kj53iAcw9j-23">
          <mxGeometry width="50" height="50" relative="1" as="geometry">
            <mxPoint x="-460" y="-230" as="sourcePoint" />
            <mxPoint x="-410" y="-280" as="targetPoint" />
          </mxGeometry>
        </mxCell>
        <mxCell id="W9RVa1DGL_Kj53iAcw9j-71" value="" style="endArrow=classic;html=1;rounded=0;entryX=1;entryY=0.5;entryDx=0;entryDy=0;" edge="1" parent="1" target="W9RVa1DGL_Kj53iAcw9j-25">
          <mxGeometry width="50" height="50" relative="1" as="geometry">
            <mxPoint x="-930" y="-315" as="sourcePoint" />
            <mxPoint x="-400" y="-270" as="targetPoint" />
          </mxGeometry>
        </mxCell>
        <mxCell id="W9RVa1DGL_Kj53iAcw9j-72" value="" style="endArrow=classic;html=1;rounded=0;exitX=1;exitY=0.5;exitDx=0;exitDy=0;entryX=0;entryY=0.5;entryDx=0;entryDy=0;" edge="1" parent="1" source="W9RVa1DGL_Kj53iAcw9j-3" target="W9RVa1DGL_Kj53iAcw9j-27">
          <mxGeometry width="50" height="50" relative="1" as="geometry">
            <mxPoint x="-440" y="-210" as="sourcePoint" />
            <mxPoint x="-740" y="-310" as="targetPoint" />
          </mxGeometry>
        </mxCell>
        <mxCell id="W9RVa1DGL_Kj53iAcw9j-73" value="" style="endArrow=classic;html=1;rounded=0;entryX=0.5;entryY=1;entryDx=0;entryDy=0;exitX=0.5;exitY=0;exitDx=0;exitDy=0;" edge="1" parent="1" source="W9RVa1DGL_Kj53iAcw9j-22" target="W9RVa1DGL_Kj53iAcw9j-3">
          <mxGeometry width="50" height="50" relative="1" as="geometry">
            <mxPoint x="-430" y="-200" as="sourcePoint" />
            <mxPoint x="-380" y="-250" as="targetPoint" />
          </mxGeometry>
        </mxCell>
        <mxCell id="W9RVa1DGL_Kj53iAcw9j-74" value="" style="endArrow=classic;html=1;rounded=0;entryX=0.5;entryY=1;entryDx=0;entryDy=0;exitX=0.5;exitY=0;exitDx=0;exitDy=0;" edge="1" parent="1" source="W9RVa1DGL_Kj53iAcw9j-5" target="W9RVa1DGL_Kj53iAcw9j-22">
          <mxGeometry width="50" height="50" relative="1" as="geometry">
            <mxPoint x="-420" y="-190" as="sourcePoint" />
            <mxPoint x="-370" y="-240" as="targetPoint" />
          </mxGeometry>
        </mxCell>
        <mxCell id="W9RVa1DGL_Kj53iAcw9j-75" value="" style="endArrow=classic;html=1;rounded=0;entryX=1;entryY=0.5;entryDx=0;entryDy=0;exitX=0;exitY=0.5;exitDx=0;exitDy=0;" edge="1" parent="1" source="W9RVa1DGL_Kj53iAcw9j-5" target="W9RVa1DGL_Kj53iAcw9j-29">
          <mxGeometry width="50" height="50" relative="1" as="geometry">
            <mxPoint x="-410" y="-180" as="sourcePoint" />
            <mxPoint x="-360" y="-230" as="targetPoint" />
          </mxGeometry>
        </mxCell>
        <mxCell id="W9RVa1DGL_Kj53iAcw9j-76" value="" style="endArrow=classic;html=1;rounded=0;entryX=1;entryY=0.5;entryDx=0;entryDy=0;" edge="1" parent="1" source="W9RVa1DGL_Kj53iAcw9j-34" target="W9RVa1DGL_Kj53iAcw9j-5">
          <mxGeometry width="50" height="50" relative="1" as="geometry">
            <mxPoint x="-400" y="-170" as="sourcePoint" />
            <mxPoint x="-350" y="-220" as="targetPoint" />
          </mxGeometry>
        </mxCell>
        <mxCell id="W9RVa1DGL_Kj53iAcw9j-77" value="" style="endArrow=classic;html=1;rounded=0;entryX=0.5;entryY=0;entryDx=0;entryDy=0;exitX=0.5;exitY=1;exitDx=0;exitDy=0;" edge="1" parent="1" source="W9RVa1DGL_Kj53iAcw9j-5" target="W9RVa1DGL_Kj53iAcw9j-31">
          <mxGeometry width="50" height="50" relative="1" as="geometry">
            <mxPoint x="-390" y="-160" as="sourcePoint" />
            <mxPoint x="-340" y="-210" as="targetPoint" />
          </mxGeometry>
        </mxCell>
        <mxCell id="W9RVa1DGL_Kj53iAcw9j-78" value="" style="endArrow=classic;html=1;rounded=0;entryX=1;entryY=0;entryDx=0;entryDy=0;exitX=0;exitY=1;exitDx=0;exitDy=0;" edge="1" parent="1" source="W9RVa1DGL_Kj53iAcw9j-5" target="W9RVa1DGL_Kj53iAcw9j-33">
          <mxGeometry width="50" height="50" relative="1" as="geometry">
            <mxPoint x="-380" y="-150" as="sourcePoint" />
            <mxPoint x="-330" y="-200" as="targetPoint" />
          </mxGeometry>
        </mxCell>
        <mxCell id="W9RVa1DGL_Kj53iAcw9j-79" value="" style="endArrow=classic;html=1;rounded=0;exitX=0;exitY=0.5;exitDx=0;exitDy=0;entryX=1;entryY=0.5;entryDx=0;entryDy=0;" edge="1" parent="1" source="W9RVa1DGL_Kj53iAcw9j-6" target="W9RVa1DGL_Kj53iAcw9j-34">
          <mxGeometry width="50" height="50" relative="1" as="geometry">
            <mxPoint x="-370" y="-140" as="sourcePoint" />
            <mxPoint x="-320" y="-190" as="targetPoint" />
          </mxGeometry>
        </mxCell>
        <mxCell id="W9RVa1DGL_Kj53iAcw9j-80" value="" style="endArrow=classic;html=1;rounded=0;entryX=0.5;entryY=1;entryDx=0;entryDy=0;exitX=0.5;exitY=0;exitDx=0;exitDy=0;" edge="1" parent="1" source="W9RVa1DGL_Kj53iAcw9j-37" target="W9RVa1DGL_Kj53iAcw9j-6">
          <mxGeometry width="50" height="50" relative="1" as="geometry">
            <mxPoint x="-460" y="40" as="sourcePoint" />
            <mxPoint x="-310" y="-180" as="targetPoint" />
          </mxGeometry>
        </mxCell>
        <mxCell id="W9RVa1DGL_Kj53iAcw9j-81" value="" style="endArrow=classic;html=1;rounded=0;entryX=1;entryY=0.5;entryDx=0;entryDy=0;" edge="1" parent="1" source="W9RVa1DGL_Kj53iAcw9j-37" target="W9RVa1DGL_Kj53iAcw9j-54">
          <mxGeometry width="50" height="50" relative="1" as="geometry">
            <mxPoint x="-438" y="-182" as="sourcePoint" />
            <mxPoint x="-388" y="-232" as="targetPoint" />
          </mxGeometry>
        </mxCell>
        <mxCell id="W9RVa1DGL_Kj53iAcw9j-82" value="" style="endArrow=classic;html=1;rounded=0;exitX=1;exitY=0.5;exitDx=0;exitDy=0;entryX=0;entryY=0.5;entryDx=0;entryDy=0;" edge="1" parent="1" source="W9RVa1DGL_Kj53iAcw9j-37" target="W9RVa1DGL_Kj53iAcw9j-51">
          <mxGeometry width="50" height="50" relative="1" as="geometry">
            <mxPoint x="-340" y="-110" as="sourcePoint" />
            <mxPoint x="-290" y="-160" as="targetPoint" />
          </mxGeometry>
        </mxCell>
        <mxCell id="W9RVa1DGL_Kj53iAcw9j-83" value="" style="endArrow=classic;html=1;rounded=0;entryX=0.5;entryY=1;entryDx=0;entryDy=0;" edge="1" parent="1" source="W9RVa1DGL_Kj53iAcw9j-1" target="W9RVa1DGL_Kj53iAcw9j-37">
          <mxGeometry width="50" height="50" relative="1" as="geometry">
            <mxPoint x="-330" y="-100" as="sourcePoint" />
            <mxPoint x="-280" y="-150" as="targetPoint" />
          </mxGeometry>
        </mxCell>
        <mxCell id="W9RVa1DGL_Kj53iAcw9j-84" value="" style="endArrow=classic;html=1;rounded=0;entryX=0;entryY=0.5;entryDx=0;entryDy=0;exitX=1;exitY=0.5;exitDx=0;exitDy=0;" edge="1" parent="1" source="W9RVa1DGL_Kj53iAcw9j-1" target="W9RVa1DGL_Kj53iAcw9j-42">
          <mxGeometry width="50" height="50" relative="1" as="geometry">
            <mxPoint x="-320" y="-90" as="sourcePoint" />
            <mxPoint x="-270" y="-140" as="targetPoint" />
          </mxGeometry>
        </mxCell>
        <mxCell id="W9RVa1DGL_Kj53iAcw9j-85" value="" style="endArrow=classic;html=1;rounded=0;entryX=1;entryY=0.5;entryDx=0;entryDy=0;" edge="1" parent="1" source="W9RVa1DGL_Kj53iAcw9j-1" target="W9RVa1DGL_Kj53iAcw9j-46">
          <mxGeometry width="50" height="50" relative="1" as="geometry">
            <mxPoint x="-310" y="-80" as="sourcePoint" />
            <mxPoint x="-260" y="-130" as="targetPoint" />
          </mxGeometry>
        </mxCell>
        <mxCell id="W9RVa1DGL_Kj53iAcw9j-86" value="" style="endArrow=classic;html=1;rounded=0;entryX=0;entryY=0.5;entryDx=0;entryDy=0;exitX=1;exitY=1;exitDx=0;exitDy=0;" edge="1" parent="1" source="W9RVa1DGL_Kj53iAcw9j-1" target="W9RVa1DGL_Kj53iAcw9j-48">
          <mxGeometry width="50" height="50" relative="1" as="geometry">
            <mxPoint x="-295" y="490" as="sourcePoint" />
            <mxPoint x="-245" y="440" as="targetPoint" />
          </mxGeometry>
        </mxCell>
        <mxCell id="W9RVa1DGL_Kj53iAcw9j-87" value="" style="endArrow=classic;html=1;rounded=0;exitX=0;exitY=1;exitDx=0;exitDy=0;entryX=1;entryY=0.5;entryDx=0;entryDy=0;" edge="1" parent="1" source="W9RVa1DGL_Kj53iAcw9j-1" target="W9RVa1DGL_Kj53iAcw9j-50">
          <mxGeometry width="50" height="50" relative="1" as="geometry">
            <mxPoint x="-290" y="-60" as="sourcePoint" />
            <mxPoint x="-240" y="-110" as="targetPoint" />
          </mxGeometry>
        </mxCell>
        <mxCell id="W9RVa1DGL_Kj53iAcw9j-88" value="" style="endArrow=classic;html=1;rounded=0;exitX=0.5;exitY=1;exitDx=0;exitDy=0;" edge="1" parent="1" source="W9RVa1DGL_Kj53iAcw9j-1" target="W9RVa1DGL_Kj53iAcw9j-44">
          <mxGeometry width="50" height="50" relative="1" as="geometry">
            <mxPoint x="-280" y="-50" as="sourcePoint" />
            <mxPoint x="-230" y="-100" as="targetPoint" />
          </mxGeometry>
        </mxCell>
        <mxCell id="W9RVa1DGL_Kj53iAcw9j-89" value="" style="endArrow=classic;html=1;rounded=0;exitX=1;exitY=0.5;exitDx=0;exitDy=0;entryX=0;entryY=0.5;entryDx=0;entryDy=0;" edge="1" parent="1" source="W9RVa1DGL_Kj53iAcw9j-9" target="W9RVa1DGL_Kj53iAcw9j-60">
          <mxGeometry width="50" height="50" relative="1" as="geometry">
            <mxPoint x="590" y="-180" as="sourcePoint" />
            <mxPoint x="-220" y="-90" as="targetPoint" />
          </mxGeometry>
        </mxCell>
        <mxCell id="W9RVa1DGL_Kj53iAcw9j-90" value="" style="endArrow=classic;html=1;rounded=0;exitX=1;exitY=0.5;exitDx=0;exitDy=0;entryX=0;entryY=0.5;entryDx=0;entryDy=0;" edge="1" parent="1" source="W9RVa1DGL_Kj53iAcw9j-57" target="W9RVa1DGL_Kj53iAcw9j-9">
          <mxGeometry width="50" height="50" relative="1" as="geometry">
            <mxPoint x="150" y="120" as="sourcePoint" />
            <mxPoint x="-210" y="-80" as="targetPoint" />
          </mxGeometry>
        </mxCell>
        <mxCell id="W9RVa1DGL_Kj53iAcw9j-91" value="" style="endArrow=classic;html=1;rounded=0;exitX=1;exitY=0.5;exitDx=0;exitDy=0;entryX=0;entryY=0.5;entryDx=0;entryDy=0;" edge="1" parent="1" source="W9RVa1DGL_Kj53iAcw9j-8" target="W9RVa1DGL_Kj53iAcw9j-57">
          <mxGeometry width="50" height="50" relative="1" as="geometry">
            <mxPoint x="100" y="140" as="sourcePoint" />
            <mxPoint x="110" y="80" as="targetPoint" />
          </mxGeometry>
        </mxCell>
        <mxCell id="W9RVa1DGL_Kj53iAcw9j-92" value="" style="endArrow=classic;html=1;rounded=0;entryX=0;entryY=0.5;entryDx=0;entryDy=0;" edge="1" parent="1" source="W9RVa1DGL_Kj53iAcw9j-38" target="W9RVa1DGL_Kj53iAcw9j-8">
          <mxGeometry width="50" height="50" relative="1" as="geometry">
            <mxPoint x="-140" y="90" as="sourcePoint" />
            <mxPoint x="-90" y="40" as="targetPoint" />
          </mxGeometry>
        </mxCell>
        <mxCell id="W9RVa1DGL_Kj53iAcw9j-93" value="" style="endArrow=classic;html=1;rounded=0;entryX=0;entryY=0.5;entryDx=0;entryDy=0;exitX=1;exitY=0.5;exitDx=0;exitDy=0;" edge="1" parent="1" source="W9RVa1DGL_Kj53iAcw9j-6" target="W9RVa1DGL_Kj53iAcw9j-38">
          <mxGeometry width="50" height="50" relative="1" as="geometry">
            <mxPoint x="-230" as="sourcePoint" />
            <mxPoint x="-180" y="-50" as="targetPoint" />
          </mxGeometry>
        </mxCell>
        <mxCell id="W9RVa1DGL_Kj53iAcw9j-95" value="" style="endArrow=classic;html=1;rounded=0;exitX=0.5;exitY=1;exitDx=0;exitDy=0;entryX=0.5;entryY=0;entryDx=0;entryDy=0;" edge="1" parent="1" source="W9RVa1DGL_Kj53iAcw9j-8" target="W9RVa1DGL_Kj53iAcw9j-110">
          <mxGeometry width="50" height="50" relative="1" as="geometry">
            <mxPoint x="-50" y="80" as="sourcePoint" />
            <mxPoint x="-50" y="50" as="targetPoint" />
          </mxGeometry>
        </mxCell>
        <mxCell id="W9RVa1DGL_Kj53iAcw9j-96" value="" style="endArrow=classic;html=1;rounded=0;entryX=0.5;entryY=1;entryDx=0;entryDy=0;exitX=0.5;exitY=0;exitDx=0;exitDy=0;" edge="1" parent="1" source="W9RVa1DGL_Kj53iAcw9j-9" target="W9RVa1DGL_Kj53iAcw9j-107">
          <mxGeometry width="50" height="50" relative="1" as="geometry">
            <mxPoint x="-210" y="20" as="sourcePoint" />
            <mxPoint x="-160" y="-30" as="targetPoint" />
          </mxGeometry>
        </mxCell>
        <mxCell id="W9RVa1DGL_Kj53iAcw9j-97" value="" style="endArrow=classic;html=1;rounded=0;entryX=0;entryY=1;entryDx=0;entryDy=0;" edge="1" parent="1" source="W9RVa1DGL_Kj53iAcw9j-9" target="W9RVa1DGL_Kj53iAcw9j-106">
          <mxGeometry width="50" height="50" relative="1" as="geometry">
            <mxPoint x="-200" y="30" as="sourcePoint" />
            <mxPoint x="-150" y="-20" as="targetPoint" />
          </mxGeometry>
        </mxCell>
        <mxCell id="W9RVa1DGL_Kj53iAcw9j-98" value="" style="endArrow=classic;html=1;rounded=0;exitX=0;exitY=1;exitDx=0;exitDy=0;entryX=1;entryY=0;entryDx=0;entryDy=0;" edge="1" parent="1" source="W9RVa1DGL_Kj53iAcw9j-9" target="W9RVa1DGL_Kj53iAcw9j-104">
          <mxGeometry width="50" height="50" relative="1" as="geometry">
            <mxPoint x="-190" y="40" as="sourcePoint" />
            <mxPoint x="-140" y="-10" as="targetPoint" />
          </mxGeometry>
        </mxCell>
        <mxCell id="W9RVa1DGL_Kj53iAcw9j-99" value="" style="endArrow=classic;html=1;rounded=0;exitX=1;exitY=1;exitDx=0;exitDy=0;" edge="1" parent="1" source="W9RVa1DGL_Kj53iAcw9j-9" target="W9RVa1DGL_Kj53iAcw9j-102">
          <mxGeometry width="50" height="50" relative="1" as="geometry">
            <mxPoint x="710" y="75" as="sourcePoint" />
            <mxPoint x="570" y="20" as="targetPoint" />
          </mxGeometry>
        </mxCell>
        <mxCell id="W9RVa1DGL_Kj53iAcw9j-100" value="" style="endArrow=classic;html=1;rounded=0;entryX=0.5;entryY=0;entryDx=0;entryDy=0;exitX=0.5;exitY=1;exitDx=0;exitDy=0;" edge="1" parent="1" source="W9RVa1DGL_Kj53iAcw9j-9" target="W9RVa1DGL_Kj53iAcw9j-59">
          <mxGeometry width="50" height="50" relative="1" as="geometry">
            <mxPoint x="-170" y="60" as="sourcePoint" />
            <mxPoint x="-120" y="10" as="targetPoint" />
          </mxGeometry>
        </mxCell>
        <mxCell id="W9RVa1DGL_Kj53iAcw9j-102" value="actor" style="html=1;overflow=block;blockSpacing=1;whiteSpace=wrap;fontSize=16.7;spacing=9;strokeColor=#unset;rounded=1;absoluteArcSize=1;arcSize=9;fillColor=#unset;strokeWidth=NaN;lucidId=JLT9qsmtv-Rv;fontColor=#FFFFFF;" vertex="1" parent="1">
          <mxGeometry x="570" y="15" width="120" height="60" as="geometry" />
        </mxCell>
        <mxCell id="W9RVa1DGL_Kj53iAcw9j-104" value="director" style="html=1;overflow=block;blockSpacing=1;whiteSpace=wrap;fontSize=16.7;spacing=9;strokeColor=#unset;rounded=1;absoluteArcSize=1;arcSize=9;fillColor=#unset;strokeWidth=NaN;lucidId=JLT9qsmtv-Rv;fontColor=#FFFFFF;" vertex="1" parent="1">
          <mxGeometry x="200" y="20" width="120" height="60" as="geometry" />
        </mxCell>
        <mxCell id="W9RVa1DGL_Kj53iAcw9j-106" value="mv_type" style="html=1;overflow=block;blockSpacing=1;whiteSpace=wrap;fontSize=16.7;spacing=9;strokeColor=#unset;rounded=1;absoluteArcSize=1;arcSize=9;fillColor=#unset;strokeWidth=NaN;lucidId=JLT9qsmtv-Rv;fontColor=#FFFFFF;" vertex="1" parent="1">
          <mxGeometry x="550" y="-190" width="120" height="60" as="geometry" />
        </mxCell>
        <mxCell id="W9RVa1DGL_Kj53iAcw9j-107" value="release_date" style="html=1;overflow=block;blockSpacing=1;whiteSpace=wrap;fontSize=16.7;spacing=9;strokeColor=#unset;rounded=1;absoluteArcSize=1;arcSize=9;fillColor=#unset;strokeWidth=NaN;lucidId=JLT9qsmtv-Rv;fontColor=#FFFFFF;" vertex="1" parent="1">
          <mxGeometry x="375" y="-270" width="120" height="60" as="geometry" />
        </mxCell>
        <mxCell id="W9RVa1DGL_Kj53iAcw9j-110" value="start_time" style="html=1;overflow=block;blockSpacing=1;whiteSpace=wrap;fontSize=16.7;spacing=9;strokeColor=#unset;rounded=1;absoluteArcSize=1;arcSize=9;fillColor=#unset;strokeWidth=NaN;lucidId=JLT9qsmtv-Rv;fontColor=#FFFFFF;" vertex="1" parent="1">
          <mxGeometry x="-75" y="50" width="120" height="60" as="geometry" />
        </mxCell>
        <mxCell id="W9RVa1DGL_Kj53iAcw9j-112" value="end_time" style="html=1;overflow=block;blockSpacing=1;whiteSpace=wrap;fontSize=16.7;spacing=9;strokeColor=#unset;rounded=1;absoluteArcSize=1;arcSize=9;fillColor=#unset;strokeWidth=NaN;lucidId=JLT9qsmtv-Rv;fontColor=#FFFFFF;" vertex="1" parent="1">
          <mxGeometry x="-75" y="-240" width="120" height="60" as="geometry" />
        </mxCell>
        <mxCell id="W9RVa1DGL_Kj53iAcw9j-113" value="" style="endArrow=classic;html=1;rounded=0;entryX=0.5;entryY=1;entryDx=0;entryDy=0;" edge="1" parent="1" source="W9RVa1DGL_Kj53iAcw9j-8" target="W9RVa1DGL_Kj53iAcw9j-112">
          <mxGeometry width="50" height="50" relative="1" as="geometry">
            <mxPoint x="445" y="-95" as="sourcePoint" />
            <mxPoint x="445" y="-200" as="targetPoint" />
          </mxGeometry>
        </mxCell>
        <mxCell id="W9RVa1DGL_Kj53iAcw9j-115" value="show_id" style="html=1;overflow=block;blockSpacing=1;whiteSpace=wrap;fontSize=16.7;spacing=9;strokeColor=#unset;rounded=1;absoluteArcSize=1;arcSize=9;fillColor=#unset;strokeWidth=NaN;lucidId=JLT9qsmtv-Rv;fontColor=#FFFFFF;" vertex="1" parent="1">
          <mxGeometry x="75" y="-220" width="120" height="60" as="geometry" />
        </mxCell>
        <mxCell id="W9RVa1DGL_Kj53iAcw9j-117" value="adminPass" style="html=1;overflow=block;blockSpacing=1;whiteSpace=wrap;fontSize=16.7;spacing=9;strokeColor=#unset;rounded=1;absoluteArcSize=1;arcSize=9;fillColor=#unset;strokeWidth=NaN;lucidId=JLT9qsmtv-Rv;fontColor=#FFFFFF;" vertex="1" parent="1">
          <mxGeometry x="-350" y="-457" width="120" height="60" as="geometry" />
        </mxCell>
        <mxCell id="W9RVa1DGL_Kj53iAcw9j-118" value="adminID" style="html=1;overflow=block;blockSpacing=1;whiteSpace=wrap;fontSize=16.7;spacing=9;strokeColor=#unset;rounded=1;absoluteArcSize=1;arcSize=9;fillColor=#unset;strokeWidth=NaN;lucidId=JLT9qsmtv-Rv;fontColor=#FFFFFF;" vertex="1" parent="1">
          <mxGeometry x="-577" y="-457" width="120" height="60" as="geometry" />
        </mxCell>
        <mxCell id="W9RVa1DGL_Kj53iAcw9j-127" style="edgeStyle=orthogonalEdgeStyle;rounded=0;orthogonalLoop=1;jettySize=auto;html=1;exitX=0.5;exitY=1;exitDx=0;exitDy=0;entryX=0.5;entryY=0;entryDx=0;entryDy=0;" edge="1" parent="1" source="W9RVa1DGL_Kj53iAcw9j-124" target="W9RVa1DGL_Kj53iAcw9j-6">
          <mxGeometry relative="1" as="geometry" />
        </mxCell>
        <mxCell id="W9RVa1DGL_Kj53iAcw9j-124" value="sell" style="html=1;overflow=block;blockSpacing=1;whiteSpace=wrap;rhombus;fontSize=16.7;spacing=3.8;strokeColor=#FFFFFF;rounded=1;absoluteArcSize=1;arcSize=9;fillColor=#unset;strokeWidth=NaN;lucidId=nFT9i88-t6_p;fontColor=#FFFFFF;" vertex="1" parent="1">
          <mxGeometry x="-465" y="-232" width="120" height="90" as="geometry" />
        </mxCell>
        <mxCell id="W9RVa1DGL_Kj53iAcw9j-129" value="offer" style="html=1;overflow=block;blockSpacing=1;whiteSpace=wrap;rhombus;fontSize=16.7;spacing=3.8;strokeColor=#FFFFFF;rounded=1;absoluteArcSize=1;arcSize=9;fillColor=#unset;strokeWidth=NaN;lucidId=nFT9i88-t6_p;fontColor=#FFFFFF;" vertex="1" parent="1">
          <mxGeometry x="-270" y="-270" width="120" height="90" as="geometry" />
        </mxCell>
        <mxCell id="W9RVa1DGL_Kj53iAcw9j-130" value="" style="endArrow=classic;html=1;rounded=0;entryX=0.5;entryY=1;entryDx=0;entryDy=0;" edge="1" parent="1" source="W9RVa1DGL_Kj53iAcw9j-6" target="W9RVa1DGL_Kj53iAcw9j-129">
          <mxGeometry width="50" height="50" relative="1" as="geometry">
            <mxPoint x="-200" y="-170" as="sourcePoint" />
            <mxPoint x="-150" y="-220" as="targetPoint" />
          </mxGeometry>
        </mxCell>
        <mxCell id="W9RVa1DGL_Kj53iAcw9j-131" value="" style="endArrow=classic;html=1;rounded=0;entryX=0;entryY=1;entryDx=0;entryDy=0;exitX=0.5;exitY=0;exitDx=0;exitDy=0;" edge="1" parent="1" source="W9RVa1DGL_Kj53iAcw9j-129" target="W9RVa1DGL_Kj53iAcw9j-7">
          <mxGeometry width="50" height="50" relative="1" as="geometry">
            <mxPoint x="-335" y="-87" as="sourcePoint" />
            <mxPoint x="-200" y="-170" as="targetPoint" />
          </mxGeometry>
        </mxCell>
        <mxCell id="W9RVa1DGL_Kj53iAcw9j-133" value="price" style="html=1;overflow=block;blockSpacing=1;whiteSpace=wrap;fontSize=16.7;spacing=9;strokeColor=#unset;rounded=1;absoluteArcSize=1;arcSize=9;fillColor=#unset;strokeWidth=NaN;lucidId=JLT9qsmtv-Rv;fontColor=#FFFFFF;" vertex="1" parent="1">
          <mxGeometry x="130" y="-420" width="120" height="60" as="geometry" />
        </mxCell>
        <mxCell id="W9RVa1DGL_Kj53iAcw9j-134" value="mv_name" style="html=1;overflow=block;blockSpacing=1;whiteSpace=wrap;fontSize=16.7;spacing=9;strokeColor=#unset;rounded=1;absoluteArcSize=1;arcSize=9;fillColor=#unset;strokeWidth=NaN;lucidId=JLT9qsmtv-Rv;fontColor=#FFFFFF;" vertex="1" parent="1">
          <mxGeometry x="-80" y="-570" width="120" height="60" as="geometry" />
        </mxCell>
        <mxCell id="W9RVa1DGL_Kj53iAcw9j-137" value="offer_id" style="html=1;overflow=block;blockSpacing=1;whiteSpace=wrap;fontSize=16.7;spacing=9;strokeColor=#unset;rounded=1;absoluteArcSize=1;arcSize=9;fillColor=#unset;strokeWidth=NaN;lucidId=JLT9qsmtv-Rv;fontColor=#FFFFFF;" vertex="1" parent="1">
          <mxGeometry x="105" y="-540" width="120" height="60" as="geometry" />
        </mxCell>
        <mxCell id="W9RVa1DGL_Kj53iAcw9j-138" value="" style="endArrow=classic;html=1;rounded=0;entryX=0;entryY=1;entryDx=0;entryDy=0;" edge="1" parent="1" target="W9RVa1DGL_Kj53iAcw9j-137">
          <mxGeometry width="50" height="50" relative="1" as="geometry">
            <mxPoint x="30" y="-430" as="sourcePoint" />
            <mxPoint x="-70" y="-335" as="targetPoint" />
          </mxGeometry>
        </mxCell>
      </root>
    </mxGraphModel>
  </diagram>
</mxfile>
